<?xml version="1.0" encoding="UTF-8" standalone="no"?><!DOCTYPE svg PUBLIC "-//W3C//DTD SVG 1.1//EN" "http://www.w3.org/Graphics/SVG/1.1/DTD/svg11.dtd"><svg width="100%" height="100%" viewBox="0 0 3218 1189" version="1.1" xmlns="http://www.w3.org/2000/svg" xmlns:xlink="http://www.w3.org/1999/xlink" xml:space="preserve" xmlns:serif="http://www.serif.com/" style="fill-rule:evenodd;clip-rule:evenodd;stroke-linejoin:round;stroke-miterlimit:2;"><g><g><path d="M185.843,0l-185.843,0l372.281,744.562l179.886,0l-366.325,-744.562Zm186.438,744.562l179.886,0l378.238,-744.562l-185.843,0l-372.281,744.562Z" style="fill:#b31b1d;fill-rule:nonzero;"/><rect x="2031.374" y="596.215" width="148.348" height="148.348" style="fill:#b31b1d;"/><path d="M1249.301,223.369c0,-23.429 5.559,-41.695 16.678,-54.8c11.119,-13.104 30.378,-19.656 57.778,-19.656l372.281,0c27.4,0 46.659,6.552 57.778,19.656c11.119,13.104 16.678,31.371 16.678,54.8l0,74.456l148.912,0l0,-148.912c0,-44.872 -13.601,-80.909 -40.802,-108.11c-27.201,-27.201 -63.238,-40.802 -108.11,-40.802l-521.194,0c-44.872,0 -80.909,13.601 -108.11,40.802c-27.201,27.201 -40.802,63.238 -40.802,108.11l0,446.737c0,44.872 13.601,80.909 40.802,108.11c27.201,27.201 63.238,40.802 108.11,40.802l521.194,0c44.872,0 80.909,-13.601 108.11,-40.802c27.201,-27.201 40.802,-63.238 40.802,-108.11l0,-148.912l-148.912,0l0,74.456c0,27.4 -5.559,46.659 -16.678,57.778c-11.119,11.119 -30.378,16.678 -57.778,16.678l-372.281,0c-27.4,0 -46.659,-5.559 -57.778,-16.678c-11.119,-11.119 -16.678,-30.378 -16.678,-57.778l0,-297.825Z" style="fill:#b31b1d;fill-rule:nonzero;"/><rect x="860.55" y="596.215" width="148.348" height="148.348" style="fill:#b31b1d;"/><path d="M2420.125,0l-148.912,0l0,744.562l670.106,0l0,-148.912l-521.194,0l0,-595.65Z" style="fill:#b31b1d;fill-rule:nonzero;"/><rect x="3053.286" y="596.215" width="148.348" height="148.348" style="fill:#b31b1d;"/></g><g><path d="M65.668,959.623l-43.579,0l87.298,228.557l42.182,0l-85.901,-228.557Zm43.719,228.557l42.182,0l88.695,-228.557l-43.579,0l-87.298,228.557Z" style="fill:#b7b1b1;fill-rule:nonzero;"/><path d="M379.941,1096.758l0,-45.711l-87.298,0l0,-45.711l139.677,0l0,-45.711l-174.596,0l0,228.557l174.596,0l0,-45.711l-139.677,0l0,-45.711l87.298,0Z" style="fill:#b7b1b1;fill-rule:nonzero;"/><path d="M606.916,1028.19c0,8.411 -1.606,14.323 -4.819,17.736c-3.213,3.413 -7.426,5.12 -12.641,5.12l-104.758,0l0,-45.711l104.758,0c5.215,0 9.428,1.707 12.641,5.12c3.213,3.413 4.819,9.325 4.819,17.736Zm-8.66,159.99l43.579,0l-35.478,-91.423l0.559,0c10.615,0 19.089,-4.175 25.421,-12.525c6.332,-8.35 9.498,-19.412 9.498,-33.187l0,-45.711c0,-13.774 -3.189,-24.837 -9.568,-33.187c-6.379,-8.35 -14.829,-12.525 -25.351,-12.525l-157.136,0l0,228.557l34.919,0l0,-91.423l78.638,0l34.919,91.423Z" style="fill:#b7b1b1;fill-rule:nonzero;"/><path d="M694.214,1028.19c0,-7.192 1.304,-12.799 3.911,-16.822c2.607,-4.023 7.124,-6.034 13.549,-6.034l87.298,0c6.425,0 10.941,2.011 13.549,6.034c2.607,4.023 3.911,9.63 3.911,16.822l34.919,0l0,-22.856c0,-13.774 -3.189,-24.837 -9.568,-33.187c-6.379,-8.35 -14.829,-12.525 -25.351,-12.525l-122.217,0c-10.522,0 -18.973,4.175 -25.351,12.525c-6.379,8.35 -9.568,19.412 -9.568,33.187l0,22.856l34.919,0Zm-34.919,91.423l0,22.856c0,13.774 3.189,24.837 9.568,33.187c6.379,8.35 14.829,12.525 25.351,12.525l122.217,0c10.522,0 18.973,-4.175 25.351,-12.525c6.379,-8.35 9.568,-19.412 9.568,-33.187l0,-22.856l-34.919,0c0,7.192 -1.304,12.799 -3.911,16.822c-2.607,4.023 -7.124,6.034 -13.549,6.034l-87.298,0c-6.425,0 -10.941,-2.011 -13.549,-6.034c-2.607,-4.023 -3.911,-9.63 -3.911,-16.822l-34.919,0Zm81.711,-22.856l57.966,0c6.425,0 10.941,2.011 13.549,6.034c2.607,4.023 3.911,9.63 3.911,16.822l34.919,0l0,-22.856c0,-13.774 -3.189,-24.837 -9.568,-33.187c-6.379,-8.35 -14.829,-12.525 -25.351,-12.525l-75.425,0l0,45.711Zm28.634,-45.711l-57.966,0c-6.425,0 -10.941,-2.011 -13.549,-6.034c-2.607,-4.023 -3.911,-9.63 -3.911,-16.822l-34.919,0l0,22.856c0,13.774 3.189,24.837 9.568,33.187c6.379,8.35 14.829,12.525 25.351,12.525l75.425,0l0,-45.711Z" style="fill:#b7b1b1;fill-rule:nonzero;"/><path d="M991.027,1096.758l0,-45.711l-87.298,0l0,-45.711l139.677,0l0,-45.711l-174.596,0l0,228.557l174.596,0l0,-45.711l-139.677,0l0,-45.711l87.298,0Z" style="fill:#b7b1b1;fill-rule:nonzero;"/><path d="M1235.461,1028.19c0,-7.192 1.304,-12.799 3.911,-16.822c2.607,-4.023 7.124,-6.034 13.549,-6.034l87.298,0c6.425,0 10.941,2.011 13.549,6.034c2.607,4.023 3.911,9.63 3.911,16.822l0,22.856l34.919,0l0,-45.711c0,-13.774 -3.189,-24.837 -9.568,-33.187c-6.379,-8.35 -14.829,-12.525 -25.351,-12.525l-122.217,0c-10.522,0 -18.973,4.175 -25.351,12.525c-6.379,8.35 -9.568,19.412 -9.568,33.187l0,137.134c0,13.774 3.189,24.837 9.568,33.187c6.379,8.35 14.829,12.525 25.351,12.525l122.217,0c10.522,0 18.973,-4.175 25.351,-12.525c6.379,-8.35 9.568,-19.412 9.568,-33.187l0,-45.711l-34.919,0l0,22.856c0,8.411 -1.304,14.323 -3.911,17.736c-2.607,3.413 -7.124,5.12 -13.549,5.12l-87.298,0c-6.425,0 -10.941,-1.707 -13.549,-5.12c-2.607,-3.413 -3.911,-9.325 -3.911,-17.736l0,-91.423Z" style="fill:#b7b1b1;fill-rule:nonzero;"/><path d="M1506.154,1005.335c-21.603,0 -37.201,6.278 -46.792,18.833c-9.591,12.555 -14.387,29.133 -14.387,49.734c0,20.601 4.796,37.179 14.387,49.734c9.591,12.555 25.188,18.833 46.792,18.833c21.51,0 37.061,-6.278 46.652,-18.833c9.591,-12.555 14.387,-29.133 14.387,-49.734c0,-20.601 -4.796,-37.179 -14.387,-49.734c-9.591,-12.555 -25.142,-18.833 -46.652,-18.833Zm0,182.846c-32.033,0 -56.057,-10.483 -72.073,-31.449c-16.016,-20.966 -24.024,-48.576 -24.024,-82.829c0,-34.253 8.008,-61.863 24.024,-82.829c16.016,-20.966 40.041,-31.449 72.073,-31.449c31.939,0 55.917,10.483 71.934,31.449c16.016,20.966 24.024,48.576 24.024,82.829c0,34.253 -8.008,61.863 -24.024,82.829c-16.016,20.966 -39.994,31.449 -71.934,31.449Z" style="fill:#b7b1b1;fill-rule:nonzero;"/><path d="M1706.87,1188.18l33.522,0l53.776,-138.597l0,138.597l34.919,0l0,-228.557l-43.579,0l-61.737,161.453l-60.62,-161.453l-43.579,0l0,228.557l34.919,0l0,-137.134l52.379,137.134Z" style="fill:#b7b1b1;fill-rule:nonzero;"/><path d="M2038.602,1119.613c0,-13.774 -3.166,-24.806 -9.498,-33.095c-6.332,-8.289 -14.806,-12.494 -25.421,-12.616c10.615,0 19.089,-4.151 25.421,-12.454c6.332,-8.302 9.498,-19.352 9.498,-33.149l0,-22.89c0,-13.797 -3.189,-24.878 -9.568,-33.241c-6.379,-8.363 -14.829,-12.545 -25.351,-12.545l-157.136,0l0,228.557l157.136,0c10.522,0 18.973,-4.175 25.351,-12.525c6.379,-8.35 9.568,-19.412 9.568,-33.187l0,-22.856Zm-34.919,-91.423c0,8.411 -1.606,14.323 -4.819,17.736c-3.213,3.413 -7.426,5.12 -12.641,5.12l-104.758,0l0,-45.711l104.758,0c5.215,0 9.428,1.707 12.641,5.12c3.213,3.413 4.819,9.325 4.819,17.736Zm0,91.423c0,8.411 -1.606,14.323 -4.819,17.736c-3.213,3.413 -7.426,5.12 -12.641,5.12l-104.758,0l0,-45.711l104.758,0c5.215,0 9.428,1.707 12.641,5.12c3.213,3.413 4.819,9.325 4.819,17.736Z" style="fill:#b7b1b1;fill-rule:nonzero;"/><path d="M2204.538,1119.613l26.12,68.567l43.579,0l-88.695,-228.557l-42.182,0l-87.298,228.557l43.579,0l25.84,-68.567l79.057,0Zm-17.46,-45.711l-44.417,0l21.929,-58.694l22.488,58.694Z" style="fill:#b7b1b1;fill-rule:nonzero;"/><path d="M2483.752,1005.335l0,-45.711l-192.056,0l0,45.711l78.638,0l0,182.846l34.919,0l0,-182.846l78.498,0Z" style="fill:#b7b1b1;fill-rule:nonzero;"/><path d="M2675.807,959.623l-34.919,0l0,228.557l157.136,0l0,-45.711l-122.217,0l0,-182.846Z" style="fill:#b7b1b1;fill-rule:nonzero;"/><path d="M2911.582,1005.335c-21.603,0 -37.201,6.278 -46.792,18.833c-9.591,12.555 -14.387,29.133 -14.387,49.734c0,20.601 4.796,37.179 14.387,49.734c9.591,12.555 25.188,18.833 46.792,18.833c21.51,0 37.061,-6.278 46.652,-18.833c9.591,-12.555 14.387,-29.133 14.387,-49.734c0,-20.601 -4.796,-37.179 -14.387,-49.734c-9.591,-12.555 -25.142,-18.833 -46.652,-18.833Zm0,182.846c-32.033,0 -56.057,-10.483 -72.073,-31.449c-16.016,-20.966 -24.024,-48.576 -24.024,-82.829c0,-34.253 8.008,-61.863 24.024,-82.829c16.016,-20.966 40.041,-31.449 72.073,-31.449c31.939,0 55.917,10.483 71.934,31.449c16.016,20.966 24.024,48.576 24.024,82.829c0,34.253 -8.008,61.863 -24.024,82.829c-16.016,20.966 -39.994,31.449 -71.934,31.449Z" style="fill:#b7b1b1;fill-rule:nonzero;"/><path d="M3217.055,1096.758c0,-13.774 -3.189,-24.837 -9.568,-33.187c-6.379,-8.35 -14.829,-12.525 -25.351,-12.525l-69.838,0l0,45.711l52.379,0c6.425,0 10.941,2.011 13.549,6.034c2.607,4.023 3.911,9.63 3.911,16.822c0,8.411 -1.304,14.323 -3.911,17.736c-2.607,3.413 -7.124,5.12 -13.549,5.12l-87.298,0c-6.425,0 -10.941,-1.707 -13.549,-5.12c-2.607,-3.413 -3.911,-9.325 -3.911,-17.736l0,-91.423c0,-7.192 1.304,-12.799 3.911,-16.822c2.607,-4.023 7.124,-6.034 13.549,-6.034l87.298,0c6.425,0 10.941,2.011 13.549,6.034c2.607,4.023 3.911,9.63 3.911,16.822l34.919,0l0,-22.856c0,-13.774 -3.189,-24.837 -9.568,-33.187c-6.379,-8.35 -14.829,-12.525 -25.351,-12.525l-122.217,0c-10.522,0 -18.973,4.175 -25.351,12.525c-6.379,8.35 -9.568,19.412 -9.568,33.187l0,137.134c0,13.774 3.189,24.837 9.568,33.187c6.379,8.35 14.829,12.525 25.351,12.525l122.217,0c10.522,0 18.973,-4.175 25.351,-12.525c6.379,-8.35 9.568,-19.412 9.568,-33.187l0,-45.711Z" style="fill:#b7b1b1;fill-rule:nonzero;"/></g></g></svg>