<?xml version="1.0" encoding="UTF-8" standalone="no"?><!DOCTYPE svg PUBLIC "-//W3C//DTD SVG 1.1//EN" "http://www.w3.org/Graphics/SVG/1.1/DTD/svg11.dtd"><svg width="100%" height="100%" viewBox="0 0 3211 772" version="1.1" xmlns="http://www.w3.org/2000/svg" xmlns:xlink="http://www.w3.org/1999/xlink" xml:space="preserve" xmlns:serif="http://www.serif.com/" style="fill-rule:evenodd;clip-rule:evenodd;stroke-linejoin:round;stroke-miterlimit:2;"><g><g><g><path d="M1072.825,0c20.603,-0 40.363,8.185 54.931,22.753c14.569,14.569 22.753,34.328 22.753,54.931l-0,616.368c-0,20.603 -8.185,40.363 -22.753,54.931c-14.569,14.569 -34.328,22.753 -54.931,22.753l-995.14,-0c-20.603,0 -40.363,-8.185 -54.931,-22.753c-14.569,-14.569 -22.753,-34.328 -22.753,-54.931l0,-616.368c0,-20.603 8.185,-40.363 22.753,-54.931c14.569,-14.569 34.328,-22.753 54.931,-22.753l995.14,-0Z" style="fill:#0e0f0f;"/><path d="M1072.825,0c20.603,-0 40.363,8.185 54.931,22.753c14.569,14.569 22.753,34.328 22.753,54.931l-0,616.368c-0,20.603 -8.185,40.363 -22.753,54.931c-14.569,14.569 -34.328,22.753 -54.931,22.753l-995.14,-0c-20.603,0 -40.363,-8.185 -54.931,-22.753c-14.569,-14.569 -22.753,-34.328 -22.753,-54.931l0,-616.368c0,-20.603 8.185,-40.363 22.753,-54.931c14.569,-14.569 34.328,-22.753 54.931,-22.753l995.14,-0Zm0,31.271l-995.14,0c-12.31,-0 -24.115,4.89 -32.82,13.594c-8.704,8.704 -13.594,20.51 -13.594,32.82l0,616.368c0,12.31 4.89,24.115 13.594,32.819c8.704,8.704 20.51,13.594 32.82,13.594l995.14,0c12.31,0 24.115,-4.89 32.82,-13.594c8.704,-8.704 13.594,-20.51 13.594,-32.82l-0,-616.368c-0,-12.31 -4.89,-24.115 -13.594,-32.819c-8.704,-8.704 -20.51,-13.594 -32.82,-13.594Z" style="fill:#2e3434;"/></g><g><rect x="870.412" y="175.171" width="181.324" height="32.269" style="fill:#b31b1d;"/><rect x="870.412" y="246.06" width="181.324" height="32.269" style="fill:#b31b1d;"/><rect x="870.412" y="102.79" width="181.324" height="32.269" style="fill:#2e3434;"/><rect x="870.412" y="312.541" width="181.324" height="32.269" style="fill:#2e3434;"/><g><rect x="870.412" y="396.253" width="111.72" height="22.863" style="fill:#2e3434;"/><rect x="1002.565" y="396.253" width="49.171" height="22.863" style="fill:#2e3434;"/></g><g><rect x="870.412" y="472.91" width="111.72" height="21.922" style="fill:#2e3434;"/><rect x="1002.565" y="472.91" width="49.171" height="21.922" style="fill:#2e3434;"/></g><g><rect x="870.412" y="542.044" width="111.72" height="24.744" style="fill:#2e3434;"/><rect x="1002.565" y="542.044" width="49.171" height="24.744" style="fill:#2e3434;"/></g><g><rect x="870.412" y="616.82" width="111.72" height="26.625" style="fill:#2e3434;"/><rect x="1002.565" y="616.82" width="49.171" height="26.625" style="fill:#2e3434;"/></g></g><g><path d="M225.615,414.165l10.63,-14.854l40.445,0l23.618,26.262l0,46.764l-14.854,-16.516l0,-41.657l-59.839,0Zm-67.733,94.647l10.63,-14.854l38.454,0l-10.63,14.854l-38.454,0Zm175.227,0l-13.358,-14.854l109.625,-0l-11.03,14.854l-85.237,0Zm140.031,-73.789l-14.854,20.003l0,-40.86l-8.608,0l23.462,-31.595l0,16.741l154.452,0l0,-16.435l14.854,-23.766l0,40.201l11.75,0l-9.284,14.854l-2.467,0l0,3.947l-14.854,23.766l0,-27.713l-154.452,0l0,20.857Zm239.929,-129.908l-9.284,14.854l-36.876,0l9.284,-14.854l36.876,0Z" style="fill:#2e3434;"/><path d="M117.286,565.538l136.881,-191.271l123.316,137.12l136.546,-183.882l95.373,84.473l119.514,-191.223l77.133,0l-0,25.061l-55.92,-0l-133.796,214.074l-97.521,-86.375l-139.016,187.209l-122.853,-136.605l-126.126,176.242l-13.533,0l-0,-34.823Z" style="fill:#b31b1d;"/><path d="M820.903,691.855l-718.471,0l-0,-590.472l718.471,-0l-0,590.472Zm-535.449,-14.854l0,-61.787l-168.168,0l0,61.786l168.168,0Zm356.992,-560.765l0,89.667l163.604,0l0,-89.667l-163.604,0Zm-365.757,283.075l8.765,0l0,-79.344l-168.168,0l0,79.344l118.959,0l-10.63,14.854l-108.329,0l0,79.793l51.226,0l-10.63,14.854l-40.596,0l0,91.55l168.168,0l0,-91.55l-89.119,0l10.63,-14.854l78.489,0l0,-38.136l14.854,16.516l0,21.62l19.443,0l13.358,14.854l-32.802,0l0,91.55l157.979,0l0,-91.55l-39.94,-0l11.03,-14.854l28.91,0l0,-38.933l14.854,-20.003l0,58.936l154.452,0l0,-52.08l14.854,-23.766l0,75.846l163.604,0l0,-79.793l-161.137,0l9.284,-14.854l151.853,0l0,-79.344l-102.263,0l9.284,-14.854l92.98,0l0,-84.357l-163.604,0l0,84.357l33.748,0l-9.284,14.854l-24.464,0l0,39.143l-14.854,23.766l0,-62.908l-154.452,0l0,62.602l-23.462,31.595l-149.371,0l0,11.408l-23.618,-26.262Zm529.36,109.5l-163.604,0l0,91.55l163.604,0l0,-91.55Zm-178.457,168.19l0,-61.787l-154.452,0l0,61.787l154.452,0Zm-154.452,-560.765l0,89.667l154.452,0l0,-89.667l-154.452,0Zm154.452,104.52l-154.452,0l0,84.357l154.452,0l0,-84.357Zm-327.285,84.357l157.979,0l0,-84.357l-157.979,0l0,84.357Zm327.285,295.248l0,-91.55l-154.452,0l0,91.55l154.452,0Zm-327.285,-201.05l157.979,0l0,-79.344l-157.979,0l0,79.344Zm-183.022,-193.408l168.168,0l0,-89.667l-168.168,0l0,89.667Zm688.764,409.312l-163.604,0l0,61.787l163.604,0l0,-61.787Zm-688.764,-310.101l168.168,0l0,-84.357l-168.168,0l0,84.357Zm183.022,-188.877l0,89.667l157.979,0l0,-89.667l-157.979,0Zm157.979,560.765l0,-61.787l-157.979,0l0,61.787l157.979,0Z" style="fill:#2e3434;"/></g></g><g><g><path d="M1426.691,40.274l-109.385,0l219.121,438.241l105.879,0l-215.615,-438.241Zm109.736,438.241l105.879,0l222.626,-438.241l-109.385,0l-219.121,438.241Z" style="fill:#b31b1d;fill-rule:nonzero;"/><rect x="2512.95" y="391.199" width="87.316" height="87.316" style="fill:#b31b1d;"/><path d="M2052.631,171.746c0,-13.79 3.272,-24.542 9.817,-32.255c6.544,-7.713 17.88,-11.57 34.008,-11.57l219.121,0c16.127,0 27.463,3.857 34.008,11.57c6.544,7.713 9.817,18.465 9.817,32.255l0,43.824l87.648,0l0,-87.648c0,-26.411 -8.005,-47.622 -24.016,-63.633c-16.01,-16.01 -37.221,-24.016 -63.633,-24.016l-306.769,0c-26.411,0 -47.622,8.005 -63.633,24.016c-16.01,16.01 -24.016,37.221 -24.016,63.633l0,262.945c0,26.411 8.005,47.622 24.016,63.633c16.01,16.01 37.221,24.016 63.633,24.016l306.769,0c26.411,0 47.622,-8.005 63.633,-24.016c16.01,-16.01 24.016,-37.221 24.016,-63.633l0,-87.648l-87.648,0l0,43.824c0,16.127 -3.272,27.463 -9.817,34.008c-6.544,6.544 -17.88,9.817 -34.008,9.817l-219.121,0c-16.127,0 -27.463,-3.272 -34.008,-9.817c-6.544,-6.544 -9.817,-17.88 -9.817,-34.008l0,-175.296Z" style="fill:#b31b1d;fill-rule:nonzero;"/><rect x="1823.816" y="391.199" width="87.316" height="87.316" style="fill:#b31b1d;"/><path d="M2741.765,40.274l-87.648,0l0,438.241l394.417,0l0,-87.648l-306.769,0l0,-350.593Z" style="fill:#b31b1d;fill-rule:nonzero;"/><rect x="3114.436" y="391.199" width="87.316" height="87.316" style="fill:#b31b1d;"/></g><g><path d="M1355.957,605.098l-25.65,0l51.383,134.526l24.828,0l-50.56,-134.526Zm25.732,134.526l24.828,0l52.205,-134.526l-25.65,0l-51.383,134.526Z" style="fill:#b7b1b1;fill-rule:nonzero;"/><path d="M1540.935,685.813l0,-26.905l-51.383,0l0,-26.905l82.212,0l0,-26.905l-102.765,0l0,134.526l102.765,0l0,-26.905l-82.212,0l0,-26.905l51.383,0Z" style="fill:#b7b1b1;fill-rule:nonzero;"/><path d="M1674.53,645.456c0,4.951 -0.945,8.43 -2.836,10.439c-1.891,2.009 -4.371,3.013 -7.44,3.013l-61.659,0l0,-26.905l61.659,0c3.069,0 5.549,1.004 7.44,3.013c1.891,2.009 2.836,5.489 2.836,10.439Zm-5.097,94.168l25.65,0l-20.882,-53.811l0.329,0c6.248,0 11.236,-2.457 14.963,-7.372c3.727,-4.915 5.59,-11.426 5.59,-19.533l0,-26.905c0,-8.107 -1.877,-14.619 -5.632,-19.533c-3.754,-4.915 -8.728,-7.372 -14.922,-7.372l-92.489,0l0,134.526l20.553,0l0,-53.811l46.285,0l20.553,53.811Z" style="fill:#b7b1b1;fill-rule:nonzero;"/><path d="M1725.912,645.456c0,-4.233 0.767,-7.533 2.302,-9.901c1.535,-2.368 4.193,-3.551 7.975,-3.551l51.383,0c3.782,0 6.44,1.184 7.975,3.551c1.535,2.368 2.302,5.668 2.302,9.901l20.553,0l0,-13.453c0,-8.107 -1.877,-14.619 -5.632,-19.533c-3.754,-4.915 -8.728,-7.372 -14.922,-7.372l-71.936,0c-6.193,0 -11.167,2.457 -14.922,7.372c-3.754,4.915 -5.632,11.426 -5.632,19.533l0,13.453l20.553,0Zm-20.553,53.811l0,13.453c0,8.107 1.877,14.619 5.632,19.533c3.754,4.915 8.728,7.372 14.922,7.372l71.936,0c6.193,0 11.167,-2.457 14.922,-7.372c3.754,-4.915 5.632,-11.426 5.632,-19.533l0,-13.453l-20.553,0c0,4.233 -0.767,7.533 -2.302,9.901c-1.535,2.368 -4.193,3.551 -7.975,3.551l-51.383,0c-3.782,0 -6.44,-1.184 -7.975,-3.551c-1.535,-2.368 -2.302,-5.668 -2.302,-9.901l-20.553,0Zm48.094,-13.453l34.118,0c3.782,0 6.44,1.184 7.975,3.551c1.535,2.368 2.302,5.668 2.302,9.901l20.553,0l0,-13.453c0,-8.107 -1.877,-14.619 -5.632,-19.533c-3.754,-4.915 -8.728,-7.372 -14.922,-7.372l-44.395,0l0,26.905Zm16.853,-26.905l-34.118,0c-3.782,0 -6.44,-1.184 -7.975,-3.551c-1.535,-2.368 -2.302,-5.668 -2.302,-9.901l-20.553,0l0,13.453c0,8.107 1.877,14.619 5.632,19.533c3.754,4.915 8.728,7.372 14.922,7.372l44.395,0l0,-26.905Z" style="fill:#b7b1b1;fill-rule:nonzero;"/><path d="M1900.613,685.813l0,-26.905l-51.383,0l0,-26.905l82.212,0l0,-26.905l-102.765,0l0,134.526l102.765,0l0,-26.905l-82.212,0l0,-26.905l51.383,0Z" style="fill:#b7b1b1;fill-rule:nonzero;"/><path d="M2044.484,645.456c0,-4.233 0.767,-7.533 2.302,-9.901c1.535,-2.368 4.193,-3.551 7.975,-3.551l51.383,0c3.782,0 6.44,1.184 7.975,3.551c1.535,2.368 2.302,5.668 2.302,9.901l0,13.453l20.553,0l0,-26.905c0,-8.107 -1.877,-14.619 -5.632,-19.533c-3.754,-4.915 -8.728,-7.372 -14.922,-7.372l-71.936,0c-6.193,0 -11.167,2.457 -14.922,7.372c-3.754,4.915 -5.632,11.426 -5.632,19.533l0,80.716c0,8.107 1.877,14.619 5.632,19.533c3.754,4.915 8.728,7.372 14.922,7.372l71.936,0c6.193,0 11.167,-2.457 14.922,-7.372c3.754,-4.915 5.632,-11.426 5.632,-19.533l0,-26.905l-20.553,0l0,13.453c0,4.951 -0.767,8.43 -2.302,10.439c-1.535,2.009 -4.193,3.013 -7.975,3.013l-51.383,0c-3.782,0 -6.44,-1.004 -7.975,-3.013c-1.535,-2.009 -2.302,-5.489 -2.302,-10.439l0,-53.811Z" style="fill:#b7b1b1;fill-rule:nonzero;"/><path d="M2203.812,632.003c-12.715,0 -21.896,3.695 -27.541,11.085c-5.645,7.39 -8.468,17.148 -8.468,29.273c0,12.125 2.823,21.883 8.468,29.273c5.645,7.39 14.826,11.085 27.541,11.085c12.661,0 21.814,-3.695 27.459,-11.085c5.645,-7.39 8.468,-17.148 8.468,-29.273c0,-12.125 -2.823,-21.883 -8.468,-29.273c-5.645,-7.39 -14.798,-11.085 -27.459,-11.085Zm0,107.621c-18.854,0 -32.994,-6.17 -42.421,-18.511c-9.427,-12.341 -14.14,-28.591 -14.14,-48.752c0,-20.161 4.713,-36.412 14.14,-48.752c9.427,-12.341 23.567,-18.511 42.421,-18.511c18.799,0 32.912,6.17 42.339,18.511c9.427,12.341 14.14,28.591 14.14,48.752c0,20.161 -4.713,36.412 -14.14,48.752c-9.427,12.341 -23.54,18.511 -42.339,18.511Z" style="fill:#b7b1b1;fill-rule:nonzero;"/><path d="M2321.95,739.624l19.731,0l31.652,-81.577l0,81.577l20.553,0l0,-134.526l-25.65,0l-36.338,95.029l-35.68,-95.029l-25.65,0l0,134.526l20.553,0l0,-80.716l30.83,80.716Z" style="fill:#b7b1b1;fill-rule:nonzero;"/><path d="M2517.204,699.266c0,-8.107 -1.863,-14.601 -5.59,-19.479c-3.727,-4.879 -8.714,-7.354 -14.963,-7.426c6.248,0 11.236,-2.443 14.963,-7.33c3.727,-4.887 5.59,-11.39 5.59,-19.511l0,-13.473c0,-8.121 -1.877,-14.643 -5.632,-19.565c-3.754,-4.923 -8.728,-7.384 -14.922,-7.384l-92.489,0l0,134.526l92.489,0c6.193,0 11.167,-2.457 14.922,-7.372c3.754,-4.915 5.632,-11.426 5.632,-19.533l0,-13.453Zm-20.553,-53.811c0,4.951 -0.945,8.43 -2.836,10.439c-1.891,2.009 -4.371,3.013 -7.44,3.013l-61.659,0l0,-26.905l61.659,0c3.069,0 5.549,1.004 7.44,3.013c1.891,2.009 2.836,5.489 2.836,10.439Zm0,53.811c0,4.951 -0.945,8.43 -2.836,10.439c-1.891,2.009 -4.371,3.013 -7.44,3.013l-61.659,0l0,-26.905l61.659,0c3.069,0 5.549,1.004 7.44,3.013c1.891,2.009 2.836,5.489 2.836,10.439Z" style="fill:#b7b1b1;fill-rule:nonzero;"/><path d="M2614.872,699.266l15.374,40.358l25.65,0l-52.205,-134.526l-24.828,0l-51.383,134.526l25.65,0l15.209,-40.358l46.532,0Zm-10.277,-26.905l-26.143,0l12.907,-34.546l13.236,34.546Z" style="fill:#b7b1b1;fill-rule:nonzero;"/><path d="M2779.215,632.003l0,-26.905l-113.042,0l0,26.905l46.285,0l0,107.621l20.553,0l0,-107.621l46.203,0Z" style="fill:#b7b1b1;fill-rule:nonzero;"/><path d="M2892.256,605.098l-20.553,0l0,134.526l92.489,0l0,-26.905l-71.936,0l0,-107.621Z" style="fill:#b7b1b1;fill-rule:nonzero;"/><path d="M3031.03,632.003c-12.715,0 -21.896,3.695 -27.541,11.085c-5.645,7.39 -8.468,17.148 -8.468,29.273c0,12.125 2.823,21.883 8.468,29.273c5.645,7.39 14.826,11.085 27.541,11.085c12.661,0 21.814,-3.695 27.459,-11.085c5.645,-7.39 8.468,-17.148 8.468,-29.273c0,-12.125 -2.823,-21.883 -8.468,-29.273c-5.645,-7.39 -14.798,-11.085 -27.459,-11.085Zm0,107.621c-18.854,0 -32.994,-6.17 -42.421,-18.511c-9.427,-12.341 -14.14,-28.591 -14.14,-48.752c0,-20.161 4.713,-36.412 14.14,-48.752c9.427,-12.341 23.567,-18.511 42.421,-18.511c18.799,0 32.912,6.17 42.339,18.511c9.427,12.341 14.14,28.591 14.14,48.752c0,20.161 -4.713,36.412 -14.14,48.752c-9.427,12.341 -23.54,18.511 -42.339,18.511Z" style="fill:#b7b1b1;fill-rule:nonzero;"/><path d="M3210.828,685.813c0,-8.107 -1.877,-14.619 -5.632,-19.533c-3.754,-4.915 -8.728,-7.372 -14.922,-7.372l-41.106,0l0,26.905l30.83,0c3.782,0 6.44,1.184 7.975,3.551c1.535,2.368 2.302,5.668 2.302,9.901c0,4.951 -0.767,8.43 -2.302,10.439c-1.535,2.009 -4.193,3.013 -7.975,3.013l-51.383,0c-3.782,0 -6.44,-1.004 -7.975,-3.013c-1.535,-2.009 -2.302,-5.489 -2.302,-10.439l0,-53.811c0,-4.233 0.767,-7.533 2.302,-9.901c1.535,-2.368 4.193,-3.551 7.975,-3.551l51.383,0c3.782,0 6.44,1.184 7.975,3.551c1.535,2.368 2.302,5.668 2.302,9.901l20.553,0l0,-13.453c0,-8.107 -1.877,-14.619 -5.632,-19.533c-3.754,-4.915 -8.728,-7.372 -14.922,-7.372l-71.936,0c-6.193,0 -11.167,2.457 -14.922,7.372c-3.754,4.915 -5.632,11.426 -5.632,19.533l0,80.716c0,8.107 1.877,14.619 5.632,19.533c3.754,4.915 8.728,7.372 14.922,7.372l71.936,0c6.193,0 11.167,-2.457 14.922,-7.372c3.754,-4.915 5.632,-11.426 5.632,-19.533l0,-26.905Z" style="fill:#b7b1b1;fill-rule:nonzero;"/></g></g></g></svg>