<?xml version="1.0" encoding="UTF-8" standalone="no"?><!DOCTYPE svg PUBLIC "-//W3C//DTD SVG 1.1//EN" "http://www.w3.org/Graphics/SVG/1.1/DTD/svg11.dtd"><svg width="100%" height="100%" viewBox="0 0 1627 1686" version="1.1" xmlns="http://www.w3.org/2000/svg" xmlns:xlink="http://www.w3.org/1999/xlink" xml:space="preserve" xmlns:serif="http://www.serif.com/" style="fill-rule:evenodd;clip-rule:evenodd;stroke-linejoin:round;stroke-miterlimit:2;"><g><g><g><path d="M1461.33,0c26.598,-0 52.107,10.566 70.915,29.374c18.808,18.808 29.374,44.317 29.374,70.915l-0,795.711c-0,26.598 -10.566,52.107 -29.374,70.915c-18.808,18.808 -44.317,29.374 -70.915,29.374l-1284.694,-0c-26.598,0 -52.107,-10.566 -70.915,-29.374c-18.808,-18.808 -29.374,-44.317 -29.374,-70.915l0,-795.711c0,-26.598 10.566,-52.107 29.374,-70.915c18.808,-18.808 44.317,-29.374 70.915,-29.374l1284.694,-0Z" style="fill:#0e0f0f;"/><path d="M1461.33,0c26.598,-0 52.107,10.566 70.915,29.374c18.808,18.808 29.374,44.317 29.374,70.915l-0,795.711c-0,26.598 -10.566,52.107 -29.374,70.915c-18.808,18.808 -44.317,29.374 -70.915,29.374l-1284.694,-0c-26.598,0 -52.107,-10.566 -70.915,-29.374c-18.808,-18.808 -29.374,-44.317 -29.374,-70.915l0,-795.711c0,-26.598 10.566,-52.107 29.374,-70.915c18.808,-18.808 44.317,-29.374 70.915,-29.374l1284.694,-0Zm0,40.37l-1284.694,0c-15.891,-0 -31.132,6.313 -42.369,17.55c-11.237,11.237 -17.55,26.477 -17.55,42.369l0,795.711c0,15.891 6.313,31.132 17.55,42.369c11.237,11.237 26.478,17.55 42.369,17.55l1284.694,0c15.891,0 31.132,-6.313 42.369,-17.55c11.237,-11.237 17.55,-26.477 17.55,-42.369l-0,-795.711c-0,-15.891 -6.313,-31.132 -17.55,-42.369c-11.237,-11.237 -26.478,-17.55 -42.369,-17.55Z" style="fill:#2e3434;"/></g><g><rect x="1200.022" y="226.141" width="234.083" height="41.658" style="fill:#b31b1d;"/><rect x="1200.022" y="317.655" width="234.083" height="41.658" style="fill:#b31b1d;"/><rect x="1200.022" y="132.698" width="234.083" height="41.658" style="fill:#2e3434;"/><rect x="1200.022" y="403.48" width="234.083" height="41.658" style="fill:#2e3434;"/><g><rect x="1200.022" y="511.55" width="144.228" height="29.515" style="fill:#2e3434;"/><rect x="1370.626" y="511.55" width="63.479" height="29.515" style="fill:#2e3434;"/></g><g><rect x="1200.022" y="610.512" width="144.228" height="28.301" style="fill:#2e3434;"/><rect x="1370.626" y="610.512" width="63.479" height="28.301" style="fill:#2e3434;"/></g><g><rect x="1200.022" y="699.761" width="144.228" height="31.944" style="fill:#2e3434;"/><rect x="1370.626" y="699.761" width="63.479" height="31.944" style="fill:#2e3434;"/></g><g><rect x="1200.022" y="796.295" width="144.228" height="34.372" style="fill:#2e3434;"/><rect x="1370.626" y="796.295" width="63.479" height="34.372" style="fill:#2e3434;"/></g></g><g><path d="M367.609,534.673l13.723,-19.176l52.213,0l30.49,33.904l0,60.371l-19.176,-21.322l0,-53.777l-77.25,0Zm-87.441,122.186l13.723,-19.176l49.642,0l-13.723,19.176l-49.642,0Zm226.213,0l-17.245,-19.176l141.523,0l-14.239,19.176l-110.038,0Zm180.776,-95.26l-19.176,25.823l0,-52.749l-11.113,0l30.288,-40.788l0,21.613l199.392,0l0,-21.217l19.176,-30.681l0,51.898l15.169,0l-11.985,19.176l-3.185,0l0,5.096l-19.176,30.681l0,-35.776l-199.392,0l0,26.926Zm309.741,-167.707l-11.985,19.176l-47.606,0l11.985,-19.176l47.606,0Z" style="fill:#2e3434;"/><path d="M227.759,730.092l176.709,-246.925l159.198,177.018l176.277,-237.386l123.124,109.053l154.289,-246.862l99.576,0l-0,32.353l-72.191,-0l-172.727,276.363l-125.896,-111.508l-179.466,241.681l-158.599,-176.353l-162.824,227.522l-17.47,0l-0,-44.956Z" style="fill:#b31b1d;"/><path d="M1136.107,893.163l-927.523,0l-0,-762.281l927.523,-0l-0,762.281Zm-691.248,-19.176l0,-79.764l-217.1,0l0,79.764l217.1,0Zm460.865,-723.93l0,115.757l211.207,0l0,-115.757l-211.207,0Zm-472.18,365.44l11.315,0l0,-102.43l-217.1,0l0,102.43l153.572,0l-13.723,19.176l-139.849,0l0,103.01l66.131,0l-13.723,19.176l-52.408,0l0,118.188l217.1,0l0,-118.188l-115.049,0l13.723,-19.176l101.326,0l0,-49.233l19.176,21.322l0,27.911l25.101,0l17.245,19.176l-42.346,0l0,118.188l203.946,0l0,-118.188l-51.562,0l14.239,-19.176l37.322,0l0,-50.261l19.176,-25.823l0,76.084l199.392,0l0,-67.234l19.176,-30.681l0,97.915l211.207,0l0,-103.01l-208.022,0l11.985,-19.176l196.038,0l0,-102.43l-132.019,0l11.985,-19.176l120.034,0l0,-108.902l-211.207,0l0,108.902l43.567,0l-11.985,19.176l-31.582,0l0,50.532l-19.176,30.681l0,-81.213l-199.392,0l0,80.817l-30.288,40.788l-192.833,0l0,14.728l-30.49,-33.904Zm683.387,141.361l-211.207,0l0,118.188l211.207,0l0,-118.188Zm-230.383,217.128l0,-79.764l-199.392,0l0,79.764l199.392,0Zm-199.392,-723.93l0,115.757l199.392,0l0,-115.757l-199.392,0Zm199.392,134.932l-199.392,0l0,108.902l199.392,0l0,-108.902Zm-422.514,108.902l203.946,0l0,-108.902l-203.946,0l0,108.902Zm422.514,381.155l0,-118.188l-199.392,0l0,118.188l199.392,0Zm-422.514,-259.55l203.946,0l0,-102.43l-203.946,0l0,102.43Zm-236.275,-249.684l217.1,0l0,-115.757l-217.1,0l0,115.757Zm889.172,528.409l-211.207,0l0,79.764l211.207,0l0,-79.764Zm-889.172,-400.331l217.1,0l0,-108.902l-217.1,0l0,108.902Zm236.275,-243.835l0,115.757l203.946,0l0,-115.757l-203.946,0Zm203.946,723.93l0,-79.764l-203.946,0l0,79.764l203.946,0Z" style="fill:#2e3434;"/></g></g><g><g><path d="M93.977,1084.428l-93.977,0l188.255,376.509l90.965,0l-185.242,-376.509Zm94.278,376.509l90.965,0l191.267,-376.509l-93.977,0l-188.255,376.509Z" style="fill:#b31b1d;fill-rule:nonzero;"/><path d="M631.745,1197.381c0,-11.847 2.811,-21.085 8.434,-27.711c5.623,-6.627 15.362,-9.94 29.217,-9.94l188.255,0c13.856,0 23.595,3.313 29.217,9.94c5.623,6.627 8.434,15.864 8.434,27.711l0,37.651l75.302,0l0,-75.302c0,-22.691 -6.878,-40.914 -20.633,-54.669c-13.755,-13.755 -31.978,-20.633 -54.669,-20.633l-263.556,0c-22.691,0 -40.914,6.878 -54.669,20.633c-13.755,13.755 -20.633,31.978 -20.633,54.669l0,225.905c0,22.691 6.878,40.914 20.633,54.669c13.755,13.755 31.978,20.633 54.669,20.633l263.556,0c22.691,0 40.914,-6.878 54.669,-20.633c13.755,-13.755 20.633,-31.978 20.633,-54.669l0,-75.302l-75.302,0l0,37.651c0,13.856 -2.811,23.595 -8.434,29.217c-5.623,5.623 -15.362,8.434 -29.217,8.434l-188.255,0c-13.856,0 -23.595,-2.811 -29.217,-8.434c-5.623,-5.623 -8.434,-15.362 -8.434,-29.217l0,-150.604Z" style="fill:#b31b1d;fill-rule:nonzero;"/><path d="M1223.805,1084.428l-75.302,0l0,376.509l338.858,0l0,-75.302l-263.556,0l0,-301.207Z" style="fill:#b31b1d;fill-rule:nonzero;"/><rect x="1543.964" y="1385.887" width="75.05" height="75.05" style="fill:#b31b1d;"/><rect x="1027.205" y="1385.887" width="75.05" height="75.05" style="fill:#b31b1d;"/><rect x="435.145" y="1385.887" width="75.05" height="75.05" style="fill:#b31b1d;"/></g><g><path d="M33.207,1569.689l-22.037,0l44.145,115.576l21.331,0l-43.438,-115.576Zm22.108,115.576l21.331,0l44.851,-115.576l-22.037,0l-44.145,115.576Z" style="fill:#b7b1b1;fill-rule:nonzero;"/><path d="M192.128,1639.035l0,-23.115l-44.145,0l0,-23.115l70.632,0l0,-23.115l-88.289,0l0,115.576l88.289,0l0,-23.115l-70.632,0l0,-23.115l44.145,0Z" style="fill:#b7b1b1;fill-rule:nonzero;"/><path d="M306.904,1604.362c0,4.253 -0.812,7.243 -2.437,8.969c-1.625,1.726 -3.755,2.589 -6.392,2.589l-52.974,0l0,-23.115l52.974,0c2.637,0 4.768,0.863 6.392,2.589c1.625,1.726 2.437,4.716 2.437,8.969Zm-4.379,80.904l22.037,0l-17.94,-46.231l0.283,0c5.368,0 9.653,-2.111 12.855,-6.334c3.202,-4.222 4.803,-9.816 4.803,-16.782l0,-23.115c0,-6.965 -1.613,-12.559 -4.838,-16.782c-3.226,-4.222 -7.499,-6.334 -12.82,-6.334l-79.46,0l0,115.576l17.658,0l0,-46.231l39.766,0l17.658,46.231Z" style="fill:#b7b1b1;fill-rule:nonzero;"/><path d="M351.049,1604.362c0,-3.637 0.659,-6.472 1.978,-8.506c1.318,-2.034 3.602,-3.051 6.851,-3.051l44.145,0c3.249,0 5.533,1.017 6.851,3.051c1.318,2.034 1.978,4.87 1.978,8.506l17.658,0l0,-11.558c0,-6.965 -1.613,-12.559 -4.838,-16.782c-3.226,-4.222 -7.499,-6.334 -12.82,-6.334l-61.803,0c-5.321,0 -9.594,2.111 -12.82,6.334c-3.226,4.222 -4.838,9.816 -4.838,16.782l0,11.558l17.658,0Zm-17.658,46.231l0,11.558c0,6.965 1.613,12.559 4.838,16.782c3.226,4.222 7.499,6.334 12.82,6.334l61.803,0c5.321,0 9.594,-2.111 12.82,-6.334c3.226,-4.222 4.838,-9.816 4.838,-16.782l0,-11.558l-17.658,0c0,3.637 -0.659,6.472 -1.978,8.506c-1.318,2.034 -3.602,3.051 -6.851,3.051l-44.145,0c-3.249,0 -5.533,-1.017 -6.851,-3.051c-1.318,-2.034 -1.978,-4.87 -1.978,-8.506l-17.658,0Zm41.319,-11.558l29.312,0c3.249,0 5.533,1.017 6.851,3.051c1.318,2.034 1.978,4.87 1.978,8.506l17.658,0l0,-11.558c0,-6.965 -1.613,-12.559 -4.838,-16.782c-3.226,-4.222 -7.499,-6.334 -12.82,-6.334l-38.141,0l0,23.115Zm14.479,-23.115l-29.312,0c-3.249,0 -5.533,-1.017 -6.851,-3.051c-1.318,-2.034 -1.978,-4.87 -1.978,-8.506l-17.658,0l0,11.558c0,6.965 1.613,12.559 4.838,16.782c3.226,4.222 7.499,6.334 12.82,6.334l38.141,0l0,-23.115Z" style="fill:#b7b1b1;fill-rule:nonzero;"/><path d="M501.141,1639.035l0,-23.115l-44.145,0l0,-23.115l70.632,0l0,-23.115l-88.289,0l0,115.576l88.289,0l0,-23.115l-70.632,0l0,-23.115l44.145,0Z" style="fill:#b7b1b1;fill-rule:nonzero;"/><path d="M624.746,1604.362c0,-3.637 0.659,-6.472 1.978,-8.506c1.318,-2.034 3.602,-3.051 6.851,-3.051l44.145,0c3.249,0 5.533,1.017 6.851,3.051c1.318,2.034 1.978,4.87 1.978,8.506l0,11.558l17.658,0l0,-23.115c0,-6.965 -1.613,-12.559 -4.838,-16.782c-3.226,-4.222 -7.499,-6.334 -12.82,-6.334l-61.803,0c-5.321,0 -9.594,2.111 -12.82,6.334c-3.226,4.222 -4.838,9.816 -4.838,16.782l0,69.346c0,6.965 1.613,12.559 4.838,16.782c3.226,4.222 7.499,6.334 12.82,6.334l61.803,0c5.321,0 9.594,-2.111 12.82,-6.334c3.226,-4.222 4.838,-9.816 4.838,-16.782l0,-23.115l-17.658,0l0,11.558c0,4.253 -0.659,7.243 -1.978,8.969c-1.318,1.726 -3.602,2.589 -6.851,2.589l-44.145,0c-3.249,0 -5.533,-0.863 -6.851,-2.589c-1.318,-1.726 -1.978,-4.716 -1.978,-8.969l0,-46.231Z" style="fill:#b7b1b1;fill-rule:nonzero;"/><path d="M761.63,1592.804c-10.924,0 -18.812,3.175 -23.662,9.524c-4.85,6.349 -7.275,14.732 -7.275,25.149c0,10.417 2.425,18.8 7.275,25.149c4.85,6.349 12.737,9.524 23.662,9.524c10.877,0 18.741,-3.175 23.591,-9.524c4.85,-6.349 7.275,-14.732 7.275,-25.149c0,-10.417 -2.425,-18.8 -7.275,-25.149c-4.85,-6.349 -12.714,-9.524 -23.591,-9.524Zm0,92.461c-16.198,0 -28.347,-5.301 -36.446,-15.903c-8.099,-10.602 -12.149,-24.564 -12.149,-41.885c0,-17.321 4.05,-31.283 12.149,-41.885c8.099,-10.602 20.248,-15.903 36.446,-15.903c16.151,0 28.276,5.301 36.375,15.903c8.099,10.602 12.149,24.564 12.149,41.885c0,17.321 -4.05,31.283 -12.149,41.885c-8.099,10.602 -20.224,15.903 -36.375,15.903Z" style="fill:#b7b1b1;fill-rule:nonzero;"/><path d="M863.127,1685.266l16.952,0l27.193,-70.086l0,70.086l17.658,0l0,-115.576l-22.037,0l-31.219,81.643l-30.654,-81.643l-22.037,0l0,115.576l17.658,0l0,-69.346l26.487,69.346Z" style="fill:#b7b1b1;fill-rule:nonzero;"/><path d="M1030.877,1650.593c0,-6.965 -1.601,-12.544 -4.803,-16.735c-3.202,-4.192 -7.487,-6.318 -12.855,-6.38c5.368,0 9.653,-2.099 12.855,-6.297c3.202,-4.198 4.803,-9.786 4.803,-16.763l0,-11.575c0,-6.977 -1.613,-12.58 -4.838,-16.809c-3.226,-4.229 -7.499,-6.344 -12.82,-6.344l-79.46,0l0,115.576l79.46,0c5.321,0 9.594,-2.111 12.82,-6.334c3.226,-4.222 4.838,-9.816 4.838,-16.782l0,-11.558Zm-17.658,-46.231c0,4.253 -0.812,7.243 -2.437,8.969c-1.625,1.726 -3.755,2.589 -6.392,2.589l-52.974,0l0,-23.115l52.974,0c2.637,0 4.768,0.863 6.392,2.589c1.625,1.726 2.437,4.716 2.437,8.969Zm0,46.231c0,4.253 -0.812,7.243 -2.437,8.969c-1.625,1.726 -3.755,2.589 -6.392,2.589l-52.974,0l0,-23.115l52.974,0c2.637,0 4.768,0.863 6.392,2.589c1.625,1.726 2.437,4.716 2.437,8.969Z" style="fill:#b7b1b1;fill-rule:nonzero;"/><path d="M1114.787,1650.593l13.208,34.673l22.037,0l-44.851,-115.576l-21.331,0l-44.145,115.576l22.037,0l13.067,-34.673l39.977,0Zm-8.829,-23.115l-22.461,0l11.089,-29.68l11.372,29.68Z" style="fill:#b7b1b1;fill-rule:nonzero;"/><path d="M1255.98,1592.804l0,-23.115l-97.118,0l0,23.115l39.766,0l0,92.461l17.658,0l0,-92.461l39.695,0Z" style="fill:#b7b1b1;fill-rule:nonzero;"/><path d="M1353.098,1569.689l-17.658,0l0,115.576l79.46,0l0,-23.115l-61.803,0l0,-92.461Z" style="fill:#b7b1b1;fill-rule:nonzero;"/><path d="M1472.324,1592.804c-10.924,0 -18.812,3.175 -23.662,9.524c-4.85,6.349 -7.275,14.732 -7.275,25.149c0,10.417 2.425,18.8 7.275,25.149c4.85,6.349 12.737,9.524 23.662,9.524c10.877,0 18.741,-3.175 23.591,-9.524c4.85,-6.349 7.275,-14.732 7.275,-25.149c0,-10.417 -2.425,-18.8 -7.275,-25.149c-4.85,-6.349 -12.714,-9.524 -23.591,-9.524Zm0,92.461c-16.198,0 -28.347,-5.301 -36.446,-15.903c-8.099,-10.602 -12.149,-24.564 -12.149,-41.885c0,-17.321 4.05,-31.283 12.149,-41.885c8.099,-10.602 20.248,-15.903 36.446,-15.903c16.151,0 28.276,5.301 36.375,15.903c8.099,10.602 12.149,24.564 12.149,41.885c0,17.321 -4.05,31.283 -12.149,41.885c-8.099,10.602 -20.224,15.903 -36.375,15.903Z" style="fill:#b7b1b1;fill-rule:nonzero;"/><path d="M1626.795,1639.035c0,-6.965 -1.613,-12.559 -4.838,-16.782c-3.226,-4.222 -7.499,-6.334 -12.82,-6.334l-35.316,0l0,23.115l26.487,0c3.249,0 5.533,1.017 6.851,3.051c1.318,2.034 1.978,4.87 1.978,8.506c0,4.253 -0.659,7.243 -1.978,8.969c-1.318,1.726 -3.602,2.589 -6.851,2.589l-44.145,0c-3.249,0 -5.533,-0.863 -6.851,-2.589c-1.318,-1.726 -1.978,-4.716 -1.978,-8.969l0,-46.231c0,-3.637 0.659,-6.472 1.978,-8.506c1.318,-2.034 3.602,-3.051 6.851,-3.051l44.145,0c3.249,0 5.533,1.017 6.851,3.051c1.318,2.034 1.978,4.87 1.978,8.506l17.658,0l0,-11.558c0,-6.965 -1.613,-12.559 -4.838,-16.782c-3.226,-4.222 -7.499,-6.334 -12.82,-6.334l-61.803,0c-5.321,0 -9.594,2.111 -12.82,6.334c-3.226,4.222 -4.838,9.816 -4.838,16.782l0,69.346c0,6.965 1.613,12.559 4.838,16.782c3.226,4.222 7.499,6.334 12.82,6.334l61.803,0c5.321,0 9.594,-2.111 12.82,-6.334c3.226,-4.222 4.838,-9.816 4.838,-16.782l0,-23.115Z" style="fill:#b7b1b1;fill-rule:nonzero;"/></g></g></g></svg>